<?xml version="1.0" encoding="utf-8"?>
<!-- Generator: Adobe Illustrator 21.1.0, SVG Export Plug-In . SVG Version: 6.00 Build 0)  -->
<svg version="1.1" id="Layer_1" xmlns="http://www.w3.org/2000/svg" xmlns:xlink="http://www.w3.org/1999/xlink" x="0px" y="0px"
	 viewBox="0 0 37 36.3" style="enable-background:new 0 0 37 36.3;" xml:space="preserve">
<style type="text/css">
	.st0{clip-path:url(#SVGID_2_);}
	.st1{clip-path:url(#SVGID_4_);}
	.st2{fill:#D1D1D2;}
</style>
<title>github_icon</title>
<g>
	<defs>
		<path id="SVGID_1_" d="M5,18.5c0,5.8,3.7,11,9.2,12.8c0.7,0.1,0.9-0.3,0.9-0.7c0-0.3,0-1.2,0-2.3c-3.8,0.8-4.5-1.8-4.5-1.8
			c-0.2-0.8-0.8-1.5-1.5-2c-1.2-0.8,0.1-0.8,0.1-0.8c0.9,0.1,1.6,0.6,2.1,1.4c0.8,1.4,2.5,1.9,3.9,1.1c0,0,0,0,0,0
			c0.1-0.7,0.4-1.3,0.9-1.8c-3-0.3-6.1-1.5-6.1-6.7c0-1.3,0.5-2.6,1.4-3.6c-0.4-1.2-0.4-2.4,0.1-3.6c0,0,1.1-0.4,3.7,1.4
			c2.2-0.6,4.5-0.6,6.8,0c2.6-1.7,3.7-1.4,3.7-1.4c0.5,1.1,0.5,2.4,0.1,3.6c0.9,1,1.4,2.3,1.4,3.6c0,5.2-3.2,6.3-6.2,6.7
			c0.7,0.7,1,1.6,0.9,2.5c0,1.8,0,3.3,0,3.7c0,0.4,0.2,0.8,0.9,0.6c7.1-2.4,10.9-10,8.5-17.1c-2.4-7.1-10-10.9-17.1-8.5
			C8.7,7.5,5,12.7,5,18.5z"/>
	</defs>
	<use xlink:href="#SVGID_1_"  style="overflow:visible;fill:#D1D1D2;"/>
	<clipPath id="SVGID_2_">
		<use xlink:href="#SVGID_1_"  style="overflow:visible;"/>
	</clipPath>
	<g class="st0">
		<g>
			<defs>
				<rect id="SVGID_3_" x="-596" y="-355.8" width="1366" height="2816"/>
			</defs>
			<use xlink:href="#SVGID_3_"  style="overflow:visible;fill:#D1D1D2;"/>
			<clipPath id="SVGID_4_">
				<use xlink:href="#SVGID_3_"  style="overflow:visible;"/>
			</clipPath>
			<g class="st1">
				<rect class="st2" width="37" height="36.3"/>
			</g>
		</g>
	</g>
</g>
</svg>
